<?xml version="1.0" encoding="UTF-8"?>
<svg width="69px" height="69px" viewBox="0 0 69 69" version="1.1" xmlns="http://www.w3.org/2000/svg" xmlns:xlink="http://www.w3.org/1999/xlink">
    <!-- Generator: Sketch 43.2 (39069) - http://www.bohemiancoding.com/sketch -->
    <title>siteimprove_logo</title>
    <desc>Created with Sketch.</desc>
    <defs></defs>
    <g id="Page-1" stroke="none" stroke-width="1" fill="none" fill-rule="evenodd">
        <g id="siteimprove_logo" fill-rule="nonzero" fill="#3C485E">
            <path d="M34.4,0.7 C15.8,0.7 0.6,15.8 0.6,34.4 C0.6,53 15.8,68.1 34.4,68.1 C53,68.1 68.2,53 68.2,34.4 C68.2,15.8 53,0.7 34.4,0.7 Z M34.4,57.1 C21.9,57.1 11.7,46.9 11.7,34.4 C11.7,21.9 21.9,11.7 34.4,11.7 C46.6,11.7 56.5,21.3 57.1,33.3 C43,43.4 31.2,24.1 17.8,31.1 C33.6,26.4 39,49.9 54.7,44.6 C50.9,52 43.2,57.1 34.4,57.1 Z" id="Shape"></path>
        </g>
    </g>
</svg>